<svg xmlns="http://www.w3.org/2000/svg" width="1551" height="908" fill="none" viewBox="0 0 1551 908"><g clip-path="url(#clip0_19_2)"><path fill="#331684" d="M1393.36 378.974C1406.35 382.03 1413.23 372.863 1410.94 355.292L1374.27 137.563C1371.21 116.937 1355.17 93.254 1339.89 87.1424C1301.53 71.1188 1261.18 60.3266 1219.95 55.056C1213.07 54.2921 1209.25 60.4036 1210.01 68.8072L1217.65 126.104C1219.18 136.799 1212.31 144.439 1203.9 142.911C1199.56 141.565 1195.72 138.958 1192.86 135.421C1190 131.884 1188.26 127.577 1187.86 123.048C1185.57 100.129 1184.04 89.4342 1180.98 66.5154C1180.85 62.9629 1179.47 59.5697 1177.1 56.9202C1174.73 54.2707 1171.51 52.5306 1168 52C872.344 60.4035 627.114 263.616 332.226 272.02C329.051 271.941 325.947 272.963 323.44 274.912C320.934 276.862 319.179 279.619 318.475 282.716C315.419 301.051 314.655 310.218 311.599 327.789C310.862 331.631 308.748 335.071 305.652 337.462C302.557 339.854 298.695 341.032 294.792 340.776C292.915 340.684 291.077 340.208 289.391 339.377C287.706 338.547 286.208 337.38 284.991 335.948C283.774 334.516 282.863 332.85 282.315 331.052C281.767 329.255 281.593 327.364 281.804 325.497L289.444 281.188C289.776 279.726 289.796 278.211 289.505 276.741C289.213 275.27 288.616 273.878 287.752 272.653C286.887 271.429 285.775 270.399 284.487 269.632C283.2 268.865 281.765 268.377 280.277 268.2C238.739 263.647 198.081 253.096 159.571 236.878C144.292 230.002 129.013 234.586 125.193 249.101C112.97 297.231 100.746 345.36 89.2869 393.49C86.2311 405.713 93.1066 420.992 106.094 430.924C139.708 456.898 176.378 501.972 165.683 547.809C154.987 593.647 108.386 608.162 67.1322 593.647C51.853 588.299 39.6297 591.355 36.5739 602.814C24.3505 651.708 12.1271 699.837 0.66771 747.966C-3.15208 761.718 9.83531 783.872 28.9343 796.096C75.0004 824.418 124.23 847.238 175.614 864.088C183.254 866.38 190.893 863.324 191.657 857.212L199.297 813.667C199.643 811.754 200.391 809.936 201.491 808.334C202.591 806.731 204.018 805.38 205.678 804.37C207.339 803.359 209.195 802.712 211.123 802.471C213.052 802.23 215.01 802.4 216.868 802.971C219.176 803.069 221.442 803.622 223.537 804.597C225.631 805.572 227.513 806.95 229.074 808.653C230.635 810.356 231.845 812.35 232.635 814.521C233.424 816.693 233.778 818.998 233.675 821.306C230.619 839.641 229.855 848.045 226.799 866.38C226.756 869.864 227.966 873.246 230.211 875.911C232.455 878.576 235.583 880.345 239.023 880.895C585.096 942.012 914.362 755.606 1260.44 816.723C1262.07 817.412 1263.87 817.613 1265.61 817.301C1267.36 816.989 1268.98 816.178 1270.27 814.965C1271.56 813.752 1272.48 812.19 1272.9 810.468C1273.33 808.746 1273.24 806.938 1272.66 805.263C1270.37 783.109 1268.84 771.649 1265.78 748.73C1265.02 739.563 1270.37 732.687 1278.77 734.215C1284.25 735.401 1289.23 738.232 1293.05 742.328C1296.87 746.424 1299.35 751.589 1300.16 757.134L1307.8 814.43C1308.66 818.704 1310.58 822.694 1313.38 826.032C1316.18 829.37 1319.78 831.948 1323.84 833.529C1375.1 850.701 1424.29 873.505 1470.52 901.522C1489.62 913.745 1502.61 907.633 1499.55 887.007L1462.88 669.278C1458.68 649.289 1447.93 631.274 1432.33 618.094C1384.96 579.132 1342.94 523.362 1333.78 462.246C1327.66 424.048 1343.71 367.515 1393.36 378.974ZM248.954 722.755C248.53 724.786 247.675 726.702 246.448 728.374C245.22 730.046 243.648 731.436 241.839 732.45C240.029 733.463 238.023 734.077 235.955 734.249C233.888 734.422 231.808 734.15 229.855 733.451C225.669 732.702 221.922 730.394 219.37 726.991C216.818 723.589 215.651 719.345 216.104 715.116L232.147 618.094C232.675 616.123 233.593 614.277 234.845 612.667C236.098 611.056 237.66 609.713 239.44 608.717C241.22 607.72 243.182 607.09 245.21 606.863C247.237 606.637 249.29 606.818 251.246 607.398C255.228 607.966 258.851 610.008 261.398 613.121C263.945 616.234 265.229 620.19 264.997 624.205L248.954 722.755ZM280.277 525.654C279.915 527.581 279.168 529.415 278.078 531.044C276.989 532.674 275.581 534.067 273.939 535.138C272.297 536.208 270.455 536.936 268.525 537.275C266.594 537.615 264.614 537.56 262.705 537.114C260.695 536.923 258.743 536.335 256.961 535.385C255.179 534.435 253.603 533.141 252.324 531.578C251.046 530.016 250.089 528.215 249.511 526.28C248.933 524.345 248.743 522.315 248.954 520.306C254.302 488.22 259.65 455.37 265.761 423.284C266.505 419.351 268.763 415.867 272.049 413.581C275.335 411.295 279.386 410.39 283.332 411.06C285.184 411.14 286.998 411.616 288.651 412.454C290.304 413.293 291.758 414.476 292.916 415.923C294.074 417.37 294.908 419.049 295.364 420.845C295.819 422.642 295.885 424.516 295.556 426.34C290.972 459.19 285.624 492.804 280.277 525.654ZM740.18 358.348C743.999 333.137 746.291 320.149 750.111 294.939C753.167 317.857 755.459 330.081 759.278 353C793.657 345.36 811.228 340.776 846.37 334.665L759.278 372.863C755.459 398.837 753.931 411.06 750.111 436.271C745.527 413.352 743.999 401.893 740.18 378.974L653.088 397.309L740.18 358.348ZM1085.49 296.467L1119.87 658.583C1077.71 658.719 1035.61 661.525 993.814 666.987L977.771 411.06C935.753 489.748 892.971 567.672 847.134 644.068C836.617 661.943 822.605 677.515 805.935 689.854C789.265 702.192 770.279 711.044 750.111 715.88C731.805 720.473 712.648 720.473 694.342 715.88C678.03 712.113 663.324 703.29 652.324 690.67C606.996 638.72 563.451 586.007 521.688 532.53L505.644 764.773C463.846 770.234 421.744 773.041 379.591 773.177L413.969 464.538L466.682 457.662L421.609 392.726C458.279 387.378 494.185 380.502 530.091 372.099C547.662 368.279 562.941 372.099 572.109 383.558C629.406 455.37 688.994 524.89 750.111 594.411C812.756 488.475 871.835 379.993 927.349 268.964C931.281 260.257 937.085 252.524 944.347 246.318C951.61 240.111 960.153 235.584 969.367 233.058C1006.04 224.655 1041.18 217.779 1077.85 212.431C1063.33 242.99 1048.06 272.784 1033.54 303.343C1050.69 299.927 1068.04 297.63 1085.49 296.467ZM1284.12 631.08C1284.88 641.012 1278.77 647.124 1269.6 644.832C1264.62 643.629 1260.13 640.938 1256.72 637.117C1253.3 633.295 1251.14 628.525 1250.5 623.441L1234.46 498.152C1233.7 488.984 1239.81 481.345 1248.98 483.637C1253.77 485.061 1258.04 487.836 1261.3 491.63C1264.55 495.424 1266.64 500.076 1267.31 505.027C1272.66 547.045 1278.01 589.063 1284.12 631.08ZM1250.5 378.21C1252.03 388.906 1245.92 395.017 1237.52 393.49C1232.75 392.55 1228.4 390.119 1225.11 386.549C1221.81 382.979 1219.74 378.454 1219.18 373.627C1213.83 331.609 1208.49 290.355 1203.9 248.337C1203.43 246.397 1203.42 244.374 1203.85 242.426C1204.29 240.478 1205.17 238.657 1206.43 237.105C1207.69 235.553 1209.28 234.311 1211.1 233.477C1212.91 232.643 1214.89 232.238 1216.89 232.294C1221.52 233.376 1225.69 235.868 1228.84 239.426C1231.99 242.985 1233.95 247.434 1234.46 252.157L1250.5 378.21Z"/><path fill="#331684" d="M413.5 309L1135.5 174L1205.13 736.392L352.5 797L413.5 309Z"/></g><path fill="#fff" d="M736.328 705.873L681.682 711.301C669.885 712.473 661.889 711.34 657.693 707.903C653.845 704.431 651.317 696.623 650.111 684.48L618.626 367.533C617.419 355.389 618.361 347.237 621.452 343.076C624.889 338.88 632.506 336.196 644.303 335.024L698.949 329.596L736.328 705.873ZM889.905 617.036L894.3 661.273C895.472 673.07 894.339 681.066 890.902 685.262C887.43 689.111 879.622 691.638 867.478 692.844L757.145 703.805L749.907 630.943L889.905 617.036ZM843.428 466.609L846.53 497.835C847.77 510.326 847.349 518.426 845.265 522.137C843.146 525.501 836.362 527.752 824.913 528.889L740.602 537.265L734.656 477.414L843.428 466.609ZM854.56 314.138L858.955 358.375C860.126 370.171 858.994 378.168 855.556 382.363C852.084 386.212 844.277 388.74 832.133 389.946L727.005 400.389L719.767 327.528L854.56 314.138Z"/><path fill="#4A23A4" d="M1393.36 378.974C1406.35 382.03 1413.23 372.863 1410.94 355.292L1374.27 137.563C1371.21 116.937 1355.17 93.254 1339.89 87.1424C1301.53 71.1188 1261.18 60.3266 1219.95 55.056C1213.07 54.2921 1209.25 60.4036 1210.01 68.8072L1217.65 126.104C1219.18 136.799 1212.31 144.439 1203.9 142.911C1199.56 141.565 1195.72 138.958 1192.86 135.421C1190 131.884 1188.26 127.577 1187.86 123.048C1185.57 100.129 1184.04 89.4342 1180.98 66.5154C1180.85 62.9629 1179.47 59.5697 1177.1 56.9202C1174.73 54.2707 1171.51 52.5306 1168 52C872.344 60.4035 627.114 263.616 332.226 272.02C329.051 271.941 325.947 272.963 323.44 274.912C320.934 276.862 319.179 279.619 318.475 282.716C315.419 301.051 314.655 310.218 311.599 327.789C310.862 331.631 308.748 335.071 305.652 337.462C302.557 339.854 298.695 341.032 294.792 340.776C292.915 340.684 291.077 340.208 289.391 339.377C287.706 338.547 286.208 337.38 284.991 335.948C283.774 334.516 282.863 332.85 282.315 331.052C281.767 329.255 281.593 327.364 281.804 325.497L289.444 281.188C289.776 279.726 289.796 278.211 289.505 276.741C289.213 275.27 288.616 273.878 287.752 272.653C286.887 271.429 285.775 270.399 284.487 269.632C283.2 268.865 281.765 268.377 280.277 268.2C238.739 263.647 198.081 253.096 159.571 236.878C144.292 230.002 129.013 234.586 125.193 249.101C112.97 297.231 100.746 345.36 89.2869 393.49C86.2311 405.713 93.1066 420.992 106.094 430.924C139.708 456.898 176.378 501.972 165.683 547.809C154.987 593.647 108.386 608.162 67.1322 593.647C51.853 588.299 39.6297 591.355 36.5739 602.814C24.3505 651.708 12.1271 699.837 0.66771 747.966C-3.15208 761.718 9.83531 783.872 28.9343 796.096C75.0004 824.418 124.23 847.238 175.614 864.088C183.254 866.38 190.893 863.324 191.657 857.212L199.297 813.667C199.643 811.754 200.391 809.936 201.491 808.334C202.591 806.731 204.018 805.38 205.678 804.37C207.339 803.359 209.195 802.712 211.123 802.471C213.052 802.23 215.01 802.4 216.868 802.971C219.176 803.069 221.442 803.622 223.537 804.597C225.631 805.572 227.513 806.95 229.074 808.653C230.635 810.356 231.845 812.35 232.635 814.521C233.424 816.693 233.778 818.998 233.675 821.306C230.619 839.641 229.855 848.045 226.799 866.38C226.756 869.864 227.966 873.246 230.211 875.911C232.455 878.576 235.583 880.345 239.023 880.895C585.096 942.012 914.362 755.606 1260.44 816.723C1262.07 817.412 1263.87 817.613 1265.61 817.301C1267.36 816.989 1268.98 816.178 1270.27 814.965C1271.56 813.752 1272.48 812.19 1272.9 810.468C1273.33 808.746 1273.24 806.938 1272.66 805.263C1270.37 783.109 1268.84 771.649 1265.78 748.73C1265.02 739.563 1270.37 732.687 1278.77 734.215C1284.25 735.401 1289.23 738.232 1293.05 742.328C1296.87 746.424 1299.35 751.589 1300.16 757.134L1307.8 814.43C1308.66 818.704 1310.58 822.694 1313.38 826.032C1316.18 829.37 1319.78 831.948 1323.84 833.529C1375.1 850.701 1424.29 873.505 1470.52 901.522C1489.62 913.745 1502.61 907.633 1499.55 887.007L1462.88 669.278C1458.68 649.289 1447.93 631.274 1432.33 618.094C1384.96 579.132 1342.94 523.362 1333.78 462.246C1327.66 424.048 1343.71 367.515 1393.36 378.974ZM248.954 722.755C248.53 724.786 247.675 726.702 246.448 728.374C245.22 730.046 243.648 731.436 241.839 732.45C240.029 733.463 238.023 734.077 235.955 734.249C233.888 734.422 231.808 734.15 229.855 733.451C225.669 732.702 221.922 730.394 219.37 726.991C216.818 723.589 215.651 719.345 216.104 715.116L232.147 618.094C232.675 616.123 233.593 614.277 234.845 612.667C236.098 611.056 237.66 609.713 239.44 608.717C241.22 607.72 243.182 607.09 245.21 606.863C247.237 606.637 249.29 606.818 251.246 607.398C255.228 607.966 258.851 610.008 261.398 613.121C263.945 616.234 265.229 620.19 264.997 624.205L248.954 722.755ZM280.277 525.654C279.915 527.581 279.168 529.415 278.078 531.044C276.989 532.674 275.581 534.067 273.939 535.138C272.297 536.208 270.455 536.936 268.525 537.275C266.594 537.615 264.614 537.56 262.705 537.114C260.695 536.923 258.743 536.335 256.961 535.385C255.179 534.435 253.603 533.141 252.324 531.578C251.046 530.016 250.089 528.215 249.511 526.28C248.933 524.345 248.743 522.315 248.954 520.306C254.302 488.22 259.65 455.37 265.761 423.284C266.505 419.351 268.763 415.867 272.049 413.581C275.335 411.295 279.386 410.39 283.332 411.06C285.184 411.14 286.998 411.616 288.651 412.454C290.304 413.293 291.758 414.476 292.916 415.923C294.074 417.37 294.908 419.049 295.364 420.845C295.819 422.642 295.885 424.516 295.556 426.34C290.972 459.19 285.624 492.804 280.277 525.654ZM740.18 358.348C743.999 333.137 746.291 320.149 750.111 294.939C753.167 317.857 755.459 330.081 759.278 353C793.657 345.36 811.228 340.776 846.37 334.665L759.278 372.863C755.459 398.837 753.931 411.06 750.111 436.271C745.527 413.352 743.999 401.893 740.18 378.974L653.088 397.309L740.18 358.348ZM1085.49 296.467L1119.87 658.583C1077.71 658.719 1035.61 661.525 993.814 666.987L977.771 411.06C935.753 489.748 892.971 567.672 847.134 644.068C836.617 661.943 822.605 677.515 805.935 689.854C789.265 702.192 770.279 711.044 750.111 715.88C731.805 720.473 712.648 720.473 694.342 715.88C678.03 712.113 663.324 703.29 652.324 690.67C606.996 638.72 563.451 586.007 521.688 532.53L505.644 764.773C463.846 770.234 421.744 773.041 379.591 773.177L413.969 464.538L466.682 457.662L421.609 392.726C458.279 387.378 494.185 380.502 530.091 372.099C547.662 368.279 562.941 372.099 572.109 383.558C629.406 455.37 688.994 524.89 750.111 594.411C812.756 488.475 871.835 379.993 927.349 268.964C931.281 260.257 937.085 252.524 944.347 246.318C951.61 240.111 960.153 235.584 969.367 233.058C1006.04 224.655 1041.18 217.779 1077.85 212.431C1063.33 242.99 1048.06 272.784 1033.54 303.343C1050.69 299.927 1068.04 297.63 1085.49 296.467ZM1284.12 631.08C1284.88 641.012 1278.77 647.124 1269.6 644.832C1264.62 643.629 1260.13 640.938 1256.72 637.117C1253.3 633.295 1251.14 628.525 1250.5 623.441L1234.46 498.152C1233.7 488.984 1239.81 481.345 1248.98 483.637C1253.77 485.061 1258.04 487.836 1261.3 491.63C1264.55 495.424 1266.64 500.076 1267.31 505.027C1272.66 547.045 1278.01 589.063 1284.12 631.08ZM1250.5 378.21C1252.03 388.906 1245.92 395.017 1237.52 393.49C1232.75 392.55 1228.4 390.119 1225.11 386.549C1221.81 382.979 1219.74 378.454 1219.18 373.627C1213.83 331.609 1208.49 290.355 1203.9 248.337C1203.43 246.397 1203.42 244.374 1203.85 242.426C1204.29 240.478 1205.17 238.657 1206.43 237.105C1207.69 235.553 1209.28 234.311 1211.1 233.477C1212.91 232.643 1214.89 232.238 1216.89 232.294C1221.52 233.376 1225.69 235.868 1228.84 239.426C1231.99 242.985 1233.95 247.434 1234.46 252.157L1250.5 378.21Z"/><path fill="#4A23A4" d="M413.5 309L1135.5 174L1205.13 736.392L352.5 797L413.5 309Z"/><path fill="#fff" d="M736.328 705.873L681.682 711.301C669.885 712.473 661.889 711.34 657.693 707.903C653.845 704.431 651.317 696.623 650.111 684.48L618.626 367.533C617.419 355.389 618.361 347.237 621.452 343.076C624.889 338.88 632.506 336.196 644.303 335.024L698.949 329.596L736.328 705.873ZM889.905 617.036L894.3 661.273C895.472 673.07 894.339 681.066 890.902 685.262C887.43 689.111 879.622 691.638 867.478 692.844L757.145 703.805L749.907 630.943L889.905 617.036ZM843.428 466.609L846.53 497.835C847.77 510.326 847.349 518.426 845.265 522.137C843.146 525.501 836.362 527.752 824.913 528.889L740.602 537.265L734.656 477.414L843.428 466.609ZM854.56 314.138L858.955 358.375C860.126 370.171 858.994 378.168 855.556 382.363C852.084 386.212 844.277 388.74 832.133 389.946L727.005 400.389L719.767 327.528L854.56 314.138Z"/><g clip-path="url(#clip1_19_2)"><path fill="#6433C4" d="M1394.36 376.974C1407.35 380.03 1414.23 370.863 1411.94 353.292L1375.27 135.563C1372.21 114.937 1356.17 91.254 1340.89 85.1424C1302.53 69.1188 1262.18 58.3266 1220.95 53.056C1214.07 52.2921 1210.25 58.4036 1211.01 66.8072L1218.65 124.104C1220.18 134.799 1213.31 142.439 1204.9 140.911C1200.56 139.565 1196.72 136.958 1193.86 133.421C1191 129.884 1189.26 125.577 1188.86 121.048C1186.57 98.1293 1185.04 87.4342 1181.98 64.5154C1181.85 60.9629 1180.47 57.5697 1178.1 54.9202C1175.73 52.2707 1172.51 50.5306 1169 50C873.344 58.4035 628.114 261.616 333.226 270.02C330.051 269.941 326.947 270.963 324.44 272.912C321.934 274.862 320.179 277.619 319.475 280.716C316.419 299.051 315.655 308.218 312.599 325.789C311.862 329.631 309.748 333.071 306.652 335.462C303.557 337.854 299.695 339.032 295.792 338.776C293.915 338.684 292.077 338.208 290.391 337.377C288.706 336.547 287.208 335.38 285.991 333.948C284.774 332.516 283.863 330.85 283.315 329.052C282.767 327.255 282.593 325.364 282.804 323.497L290.444 279.188C290.776 277.726 290.796 276.211 290.505 274.741C290.213 273.27 289.616 271.878 288.752 270.653C287.887 269.429 286.775 268.399 285.487 267.632C284.2 266.865 282.765 266.377 281.277 266.2C239.739 261.647 199.081 251.096 160.571 234.878C145.292 228.002 130.013 232.586 126.193 247.101C113.97 295.231 101.746 343.36 90.2869 391.49C87.2311 403.713 94.1066 418.992 107.094 428.924C140.708 454.898 177.378 499.972 166.683 545.809C155.987 591.647 109.386 606.162 68.1322 591.647C52.853 586.299 40.6297 589.355 37.5739 600.814C25.3505 649.708 13.1271 697.837 1.66771 745.966C-2.15208 759.718 10.8353 781.872 29.9343 794.096C76.0004 822.418 125.23 845.238 176.614 862.088C184.254 864.38 191.893 861.324 192.657 855.212L200.297 811.667C200.643 809.754 201.391 807.936 202.491 806.334C203.591 804.731 205.018 803.38 206.678 802.37C208.339 801.359 210.195 800.712 212.123 800.471C214.052 800.23 216.01 800.4 217.868 800.971C220.176 801.069 222.442 801.622 224.537 802.597C226.631 803.572 228.513 804.95 230.074 806.653C231.635 808.356 232.845 810.35 233.635 812.521C234.424 814.693 234.778 816.998 234.675 819.306C231.619 837.641 230.855 846.045 227.799 864.38C227.756 867.864 228.966 871.246 231.211 873.911C233.455 876.576 236.583 878.345 240.023 878.895C586.096 940.012 915.362 753.606 1261.44 814.723C1263.07 815.412 1264.87 815.613 1266.61 815.301C1268.36 814.989 1269.98 814.178 1271.27 812.965C1272.56 811.752 1273.48 810.19 1273.9 808.468C1274.33 806.746 1274.24 804.938 1273.66 803.263C1271.37 781.109 1269.84 769.649 1266.78 746.73C1266.02 737.563 1271.37 730.687 1279.77 732.215C1285.25 733.401 1290.23 736.232 1294.05 740.328C1297.87 744.424 1300.35 749.589 1301.16 755.134L1308.8 812.43C1309.66 816.704 1311.58 820.694 1314.38 824.032C1317.18 827.37 1320.78 829.948 1324.84 831.529C1376.1 848.701 1425.29 871.505 1471.52 899.522C1490.62 911.745 1503.61 905.633 1500.55 885.007L1463.88 667.278C1459.68 647.289 1448.93 629.274 1433.33 616.094C1385.96 577.132 1343.94 521.362 1334.78 460.246C1328.66 422.048 1344.71 365.515 1394.36 376.974ZM249.954 720.755C249.53 722.786 248.675 724.702 247.448 726.374C246.22 728.046 244.648 729.436 242.839 730.45C241.029 731.463 239.023 732.077 236.955 732.249C234.888 732.422 232.808 732.15 230.855 731.451C226.669 730.702 222.922 728.394 220.37 724.991C217.818 721.589 216.651 717.345 217.104 713.116L233.147 616.094C233.675 614.123 234.593 612.277 235.845 610.667C237.098 609.056 238.66 607.713 240.44 606.717C242.22 605.72 244.182 605.09 246.21 604.863C248.237 604.637 250.29 604.818 252.246 605.398C256.228 605.966 259.851 608.008 262.398 611.121C264.945 614.234 266.229 618.19 265.997 622.205L249.954 720.755ZM281.277 523.654C280.915 525.581 280.168 527.415 279.078 529.044C277.989 530.674 276.581 532.067 274.939 533.138C273.297 534.208 271.455 534.936 269.525 535.275C267.594 535.615 265.614 535.56 263.705 535.114C261.695 534.923 259.743 534.335 257.961 533.385C256.179 532.435 254.603 531.141 253.324 529.578C252.046 528.016 251.089 526.215 250.511 524.28C249.933 522.345 249.743 520.315 249.954 518.306C255.302 486.22 260.65 453.37 266.761 421.284C267.505 417.351 269.763 413.867 273.049 411.581C276.335 409.295 280.386 408.39 284.332 409.06C286.184 409.14 287.998 409.616 289.651 410.454C291.304 411.293 292.758 412.476 293.916 413.923C295.074 415.37 295.908 417.049 296.364 418.845C296.819 420.642 296.885 422.516 296.556 424.34C291.972 457.19 286.624 490.804 281.277 523.654ZM741.18 356.348C744.999 331.137 747.291 318.149 751.111 292.939C754.167 315.857 756.459 328.081 760.278 351C794.657 343.36 812.228 338.776 847.37 332.665L760.278 370.863C756.459 396.837 754.931 409.06 751.111 434.271C746.527 411.352 744.999 399.893 741.18 376.974L654.088 395.309L741.18 356.348ZM1086.49 294.467L1120.87 656.583C1078.71 656.719 1036.61 659.525 994.814 664.987L978.771 409.06C936.753 487.748 893.971 565.672 848.134 642.068C837.617 659.943 823.605 675.515 806.935 687.854C790.265 700.192 771.279 709.044 751.111 713.88C732.805 718.473 713.648 718.473 695.342 713.88C679.03 710.113 664.324 701.29 653.324 688.67C607.996 636.72 564.451 584.007 522.688 530.53L506.644 762.773C464.846 768.234 422.744 771.041 380.591 771.177L414.969 462.538L467.682 455.662L422.609 390.726C459.279 385.378 495.185 378.502 531.091 370.099C548.662 366.279 563.941 370.099 573.109 381.558C630.406 453.37 689.994 522.89 751.111 592.411C813.756 486.475 872.835 377.993 928.349 266.964C932.281 258.257 938.085 250.524 945.347 244.318C952.61 238.111 961.153 233.584 970.367 231.058C1007.04 222.655 1042.18 215.779 1078.85 210.431C1064.33 240.99 1049.06 270.784 1034.54 301.343C1051.69 297.927 1069.04 295.63 1086.49 294.467ZM1285.12 629.08C1285.88 639.012 1279.77 645.124 1270.6 642.832C1265.62 641.629 1261.13 638.938 1257.72 635.117C1254.3 631.295 1252.14 626.525 1251.5 621.441L1235.46 496.152C1234.7 486.984 1240.81 479.345 1249.98 481.637C1254.77 483.061 1259.04 485.836 1262.3 489.63C1265.55 493.424 1267.64 498.076 1268.31 503.027C1273.66 545.045 1279.01 587.063 1285.12 629.08ZM1251.5 376.21C1253.03 386.906 1246.92 393.017 1238.52 391.49C1233.75 390.55 1229.4 388.119 1226.11 384.549C1222.81 380.979 1220.74 376.454 1220.18 371.627C1214.83 329.609 1209.49 288.355 1204.9 246.337C1204.43 244.397 1204.42 242.374 1204.85 240.426C1205.29 238.478 1206.17 236.657 1207.43 235.105C1208.69 233.553 1210.28 232.311 1212.1 231.477C1213.91 230.643 1215.89 230.238 1217.89 230.294C1222.52 231.376 1226.69 233.868 1229.84 237.426C1232.99 240.985 1234.95 245.434 1235.46 250.157L1251.5 376.21Z"/><path fill="#6433C4" d="M414.5 307L1136.5 172L1206.13 734.392L353.5 795L414.5 307Z"/></g><path fill="#fff" d="M737.328 703.873L682.682 709.301C670.885 710.473 662.889 709.34 658.693 705.903C654.845 702.431 652.317 694.623 651.111 682.48L619.626 365.533C618.419 353.389 619.361 345.237 622.452 341.076C625.889 336.88 633.506 334.196 645.303 333.024L699.949 327.596L737.328 703.873ZM890.905 615.036L895.3 659.273C896.472 671.07 895.339 679.066 891.902 683.262C888.43 687.111 880.622 689.638 868.478 690.844L758.145 701.805L750.907 628.943L890.905 615.036ZM844.428 464.609L847.53 495.835C848.77 508.326 848.349 516.426 846.265 520.137C844.146 523.501 837.362 525.752 825.913 526.889L741.602 535.265L735.656 475.414L844.428 464.609ZM855.56 312.138L859.955 356.375C861.126 368.171 859.994 376.168 856.556 380.363C853.084 384.212 845.277 386.74 833.133 387.946L728.005 398.389L720.767 325.528L855.56 312.138Z"/><g clip-path="url(#clip2_19_2)"><path fill="#8247E5" d="M1444.36 326.974C1457.35 330.03 1464.23 320.863 1461.94 303.292L1425.27 85.5634C1422.21 64.9366 1406.17 41.254 1390.89 35.1424C1352.53 19.1188 1312.18 8.32661 1270.95 3.05602C1264.07 2.29206 1260.25 8.40364 1261.01 16.8072L1268.65 74.1041C1270.18 84.7995 1263.31 92.4392 1254.9 90.9112C1250.56 89.5651 1246.72 86.9578 1243.86 83.4209C1241 79.8839 1239.26 75.5768 1238.86 71.048C1236.57 48.1293 1235.04 37.4342 1231.98 14.5154C1231.85 10.9629 1230.47 7.56971 1228.1 4.92022C1225.73 2.27073 1222.51 0.530604 1219 0C923.344 8.40354 678.114 211.616 383.226 220.02C380.051 219.941 376.947 220.963 374.44 222.912C371.934 224.862 370.179 227.619 369.475 230.716C366.419 249.051 365.655 258.218 362.599 275.789C361.862 279.631 359.748 283.071 356.652 285.462C353.557 287.854 349.695 289.032 345.792 288.776C343.915 288.684 342.077 288.208 340.391 287.377C338.706 286.547 337.208 285.38 335.991 283.948C334.774 282.516 333.863 280.85 333.315 279.052C332.767 277.255 332.593 275.364 332.804 273.497L340.444 229.188C340.776 227.726 340.796 226.211 340.505 224.741C340.213 223.27 339.616 221.878 338.752 220.653C337.887 219.429 336.775 218.399 335.487 217.632C334.2 216.865 332.765 216.377 331.277 216.2C289.739 211.647 249.081 201.096 210.571 184.878C195.292 178.002 180.013 182.586 176.193 197.101C163.97 245.231 151.746 293.36 140.287 341.49C137.231 353.713 144.107 368.992 157.094 378.924C190.708 404.898 227.378 449.972 216.683 495.809C205.987 541.647 159.386 556.162 118.132 541.647C102.853 536.299 90.6297 539.355 87.5739 550.814C75.3505 599.708 63.1271 647.837 51.6677 695.966C47.8479 709.718 60.8353 731.872 79.9343 744.096C126 772.418 175.23 795.238 226.614 812.088C234.254 814.38 241.893 811.324 242.657 805.212L250.297 761.667C250.643 759.754 251.391 757.936 252.491 756.334C253.591 754.731 255.018 753.38 256.678 752.37C258.339 751.359 260.195 750.712 262.123 750.471C264.052 750.23 266.01 750.4 267.868 750.971C270.176 751.069 272.442 751.622 274.537 752.597C276.631 753.572 278.513 754.95 280.074 756.653C281.635 758.356 282.845 760.35 283.635 762.521C284.424 764.693 284.778 766.998 284.675 769.306C281.619 787.641 280.855 796.045 277.799 814.38C277.756 817.864 278.966 821.246 281.211 823.911C283.455 826.576 286.583 828.345 290.023 828.895C636.096 890.012 965.362 703.606 1311.44 764.723C1313.07 765.412 1314.87 765.613 1316.61 765.301C1318.36 764.989 1319.98 764.178 1321.27 762.965C1322.56 761.752 1323.48 760.19 1323.9 758.468C1324.33 756.746 1324.24 754.938 1323.66 753.263C1321.37 731.109 1319.84 719.649 1316.78 696.73C1316.02 687.563 1321.37 680.687 1329.77 682.215C1335.25 683.401 1340.23 686.232 1344.05 690.328C1347.87 694.424 1350.35 699.589 1351.16 705.134L1358.8 762.43C1359.66 766.704 1361.58 770.694 1364.38 774.032C1367.18 777.37 1370.78 779.948 1374.84 781.529C1426.1 798.701 1475.29 821.505 1521.52 849.522C1540.62 861.745 1553.61 855.633 1550.55 835.007L1513.88 617.278C1509.68 597.289 1498.93 579.274 1483.33 566.094C1435.96 527.132 1393.94 471.362 1384.78 410.246C1378.66 372.048 1394.71 315.515 1444.36 326.974ZM299.954 670.755C299.53 672.786 298.675 674.702 297.448 676.374C296.22 678.046 294.648 679.436 292.839 680.45C291.029 681.463 289.023 682.077 286.955 682.249C284.888 682.422 282.808 682.15 280.855 681.451C276.669 680.702 272.922 678.394 270.37 674.991C267.818 671.589 266.651 667.345 267.104 663.116L283.147 566.094C283.675 564.123 284.593 562.277 285.845 560.667C287.098 559.056 288.66 557.713 290.44 556.717C292.22 555.72 294.182 555.09 296.21 554.863C298.237 554.637 300.29 554.818 302.246 555.398C306.228 555.966 309.851 558.008 312.398 561.121C314.945 564.234 316.229 568.19 315.997 572.205L299.954 670.755ZM331.277 473.654C330.915 475.581 330.168 477.415 329.078 479.044C327.989 480.674 326.581 482.067 324.939 483.138C323.297 484.208 321.455 484.936 319.525 485.275C317.594 485.615 315.614 485.56 313.705 485.114C311.695 484.923 309.743 484.335 307.961 483.385C306.179 482.435 304.603 481.141 303.324 479.578C302.046 478.016 301.089 476.215 300.511 474.28C299.933 472.345 299.743 470.315 299.954 468.306C305.302 436.22 310.65 403.37 316.761 371.284C317.505 367.351 319.763 363.867 323.049 361.581C326.335 359.295 330.386 358.39 334.332 359.06C336.184 359.14 337.998 359.616 339.651 360.454C341.304 361.293 342.758 362.476 343.916 363.923C345.074 365.37 345.908 367.049 346.364 368.845C346.819 370.642 346.885 372.516 346.556 374.34C341.972 407.19 336.624 440.804 331.277 473.654ZM791.18 306.348C794.999 281.137 797.291 268.149 801.111 242.939C804.167 265.857 806.459 278.081 810.278 301C844.657 293.36 862.228 288.776 897.37 282.665L810.278 320.863C806.459 346.837 804.931 359.06 801.111 384.271C796.527 361.352 794.999 349.893 791.18 326.974L704.088 345.309L791.18 306.348ZM1136.49 244.467L1170.87 606.583C1128.71 606.719 1086.61 609.525 1044.81 614.987L1028.77 359.06C986.753 437.748 943.971 515.672 898.134 592.068C887.617 609.943 873.605 625.515 856.935 637.854C840.265 650.192 821.279 659.044 801.111 663.88C782.805 668.473 763.648 668.473 745.342 663.88C729.03 660.113 714.324 651.29 703.324 638.67C657.996 586.72 614.451 534.007 572.688 480.53L556.644 712.773C514.846 718.234 472.744 721.041 430.591 721.177L464.969 412.538L517.682 405.662L472.609 340.726C509.279 335.378 545.185 328.502 581.091 320.099C598.662 316.279 613.941 320.099 623.109 331.558C680.406 403.37 739.994 472.89 801.111 542.411C863.756 436.475 922.835 327.993 978.349 216.964C982.281 208.257 988.085 200.524 995.347 194.318C1002.61 188.111 1011.15 183.584 1020.37 181.058C1057.04 172.655 1092.18 165.779 1128.85 160.431C1114.33 190.99 1099.06 220.784 1084.54 251.343C1101.69 247.927 1119.04 245.63 1136.49 244.467ZM1335.12 579.08C1335.88 589.012 1329.77 595.124 1320.6 592.832C1315.62 591.629 1311.13 588.938 1307.72 585.117C1304.3 581.295 1302.14 576.525 1301.5 571.441L1285.46 446.152C1284.7 436.984 1290.81 429.345 1299.98 431.637C1304.77 433.061 1309.04 435.836 1312.3 439.63C1315.55 443.424 1317.64 448.076 1318.31 453.027C1323.66 495.045 1329.01 537.063 1335.12 579.08ZM1301.5 326.21C1303.03 336.906 1296.92 343.017 1288.52 341.49C1283.75 340.55 1279.4 338.119 1276.11 334.549C1272.81 330.979 1270.74 326.454 1270.18 321.627C1264.83 279.609 1259.49 238.355 1254.9 196.337C1254.43 194.397 1254.42 192.374 1254.85 190.426C1255.29 188.478 1256.17 186.657 1257.43 185.105C1258.69 183.553 1260.28 182.311 1262.1 181.477C1263.91 180.643 1265.89 180.238 1267.89 180.294C1272.52 181.376 1276.69 183.868 1279.84 187.426C1282.99 190.985 1284.95 195.434 1285.46 200.157L1301.5 326.21Z"/><path fill="#8247E5" d="M464.5 257L1186.5 122L1256.13 684.392L403.5 745L464.5 257Z"/><path fill="#fff" d="M787.328 653.873L732.682 659.301C720.885 660.473 712.889 659.34 708.693 655.903C704.845 652.431 702.317 644.623 701.111 632.48L669.626 315.533C668.419 303.389 669.361 295.237 672.452 291.076C675.889 286.88 683.506 284.196 695.303 283.024L749.949 277.596L787.328 653.873ZM940.905 565.036L945.3 609.273C946.472 621.07 945.339 629.066 941.902 633.262C938.43 637.111 930.622 639.638 918.478 640.844L808.145 651.805L800.907 578.943L940.905 565.036ZM894.428 414.609L897.53 445.835C898.77 458.326 898.349 466.426 896.265 470.137C894.146 473.501 887.362 475.752 875.913 476.889L791.602 485.265L785.656 425.414L894.428 414.609ZM905.56 262.138L909.955 306.375C911.126 318.171 909.994 326.168 906.556 330.363C903.084 334.212 895.277 336.74 883.133 337.946L778.005 348.389L770.767 275.528L905.56 262.138Z"/></g><defs><clipPath id="clip0_19_2"><rect width="1500" height="856" fill="#fff" transform="translate(0 52)"/></clipPath><clipPath id="clip1_19_2"><rect width="1500" height="856" fill="#fff" transform="translate(1 50)"/></clipPath><clipPath id="clip2_19_2"><rect width="1500" height="856" fill="#fff" transform="translate(51)"/></clipPath></defs></svg>